# xmcd
#
# Track frame offsets:
#	150
#	16862
#	30254
#	49625
#	64825
#	77743
#	91160
#	106538
#	126569
#	146197
#	161228
#	183789
#	199671
#	214614
#	233293
#
# Disc length: 3325 seconds
#
# Revision: 1
# Processed by: cddbd v1.5.2PL0 Copyright (c) Steve Scherf et al.
# Submitted via: audiograbber 1.83.01
#
DISCID=b80cfb0f
DTITLE=Blackberry Smoke - Essentials
DYEAR=2019
DGENRE=Country
TTITLE0=Good One Comin' On
TTITLE1=Let Me Down Easy
TTITLE2=One Horse Town
TTITLE3=Sanctified Woman
TTITLE4=Rock And Roll Again
TTITLE5=Let It Burn
TTITLE6=Sleeping Dogs
TTITLE7=Best Seat In The House
TTITLE8=Payback's A Bitch
TTITLE9=Testify
TTITLE10=Ain't Much Left Of Me
TTITLE11=Up In Smoke
TTITLE12=Holding All The Roses
TTITLE13=Waiting For The Thunder
TTITLE14=Pretty Little Lie
EXTD=
EXTT0=
EXTT1=
EXTT2=
EXTT3=
EXTT4=
EXTT5=
EXTT6=
EXTT7=
EXTT8=
EXTT9=
EXTT10=
EXTT11=
EXTT12=
EXTT13=
EXTT14=
PLAYORDER=
